<svg width="156" height="24" viewBox="0 0 156 24" fill="none" xmlns="http://www.w3.org/2000/svg">
<g id="logo">
<path id="Combined Shape" fill-rule="evenodd" clip-rule="evenodd" d="M80.9504 5.67055C80.6222 7.73597 79.2816 8.92599 76.4914 8.92599C73.6874 8.92599 72.3605 7.73597 72.0321 5.67055L75.1918 5.2193C75.3425 5.99894 75.7253 6.4913 76.4914 6.4913C77.2575 6.4913 77.6403 5.99894 77.7907 5.2193L80.9504 5.67055ZM146.837 18.104H149.983V12.9473H147.644V13.1388C147.603 15.2316 147.261 16.7362 146.837 18.104ZM154.141 9.65098V18.104H155.687L155.591 23.835H151.761V21.4414H145.497L145.428 23.835H141.571V18.104H142.912C143.582 16.1754 143.91 14.3015 143.91 10.2253V9.65098H154.141ZM62.2799 18.186C60.8164 18.186 59.777 16.9812 59.777 15.5598C59.777 14.1115 60.7344 12.9336 62.2388 12.9336C63.6888 12.9336 64.7419 14.1386 64.7419 15.5598C64.7419 17.0083 63.7845 18.186 62.2799 18.186ZM62.2799 9.39107C58.4912 9.39107 55.7417 12.2088 55.7417 15.5598C55.7417 18.9521 58.4637 21.7285 62.2388 21.7285C66.0275 21.7285 68.7632 18.911 68.7632 15.5598C68.7632 12.1677 66.0412 9.39107 62.2799 9.39107ZM131.176 15.5734C131.176 17.1327 132.243 18.2408 133.597 18.2408C134.924 18.2408 135.99 17.1327 135.99 15.5326C135.99 13.9733 134.924 12.8517 133.597 12.8517C132.243 12.8517 131.176 13.9457 131.176 15.5734ZM135.909 11.0871V9.65091H140.039V21.4413H135.909V19.8685C135.101 20.8532 134.103 21.7013 132.339 21.7013C129.521 21.7013 127.1 19.3759 127.1 15.5599C127.1 11.7301 129.521 9.39095 132.311 9.39095C134.103 9.39095 135.142 10.1982 135.909 11.0871ZM74.508 15.5872C74.5218 14.876 74.5218 14.0279 74.5218 13.4398V9.65091H70.514V21.4413H74.3303L78.2694 15.505C78.2556 16.1752 78.2556 16.8589 78.2556 17.5972V17.5978V21.4413H82.2636V9.65091H78.4473L74.508 15.5872ZM113.723 17.7347C114.461 17.7347 115.227 17.2012 115.241 11.9215L115.268 9.65096H125.417V21.4414H121.273V12.9473H118.893V13.3168C118.77 20.4429 117.183 21.5918 114.68 21.5918C114.284 21.5918 113.504 21.5234 112.984 21.4414H108.074L104.819 16.4078V21.4414H100.688V9.65096H104.819V14.1919L107.978 9.65096H112.751L108.539 15.0127L112.861 21.3045L113.052 17.6798C113.504 17.7347 113.613 17.7347 113.723 17.7347ZM93.0417 17.7483C90.9763 17.7483 89.3624 16.1891 89.3624 13.7817C89.3624 11.5932 90.9081 9.84236 93.1373 9.84236C94.4642 9.84236 95.4627 10.3896 96.297 11.5521L99.4293 9.26803C97.9382 7.13417 95.8319 5.87595 92.946 5.87595C88.2819 5.87595 84.9172 9.44577 84.9172 13.7817C84.9172 18.4322 88.309 21.7285 92.7407 21.7285C96.0781 21.7285 97.9931 20.2923 99.5115 18.2407L96.3243 15.9156C95.4902 17.1191 94.4917 17.7483 93.0417 17.7483ZM46.4818 12.0994C46.8239 11.4155 49.2584 6.13577 49.2584 6.13577H51.9804L54.9074 21.4414H50.763L49.4226 13.9731L45.6886 21.9475H45.2098L41.462 14.0417L40.1218 21.4414H36.0047L38.9317 6.13577H41.6397C41.6397 6.13577 43.9924 11.1964 44.4577 12.1676C44.9227 13.1388 45.4559 14.3835 45.4559 14.3835C45.4559 14.3835 46.1398 12.7833 46.4818 12.0994Z" fill="#2855AF"/>
<path id="Fill 15" fill-rule="evenodd" clip-rule="evenodd" d="M4.16232 22.688C7.89397 22.688 10.7153 17.8296 13.2445 12.5254C14.4619 9.95379 15.597 7.25937 16.7321 4.97509C17.9787 2.44131 19.2574 0.652954 20.8219 0.652954C22.1481 0.652954 23.3961 1.72392 24.6381 3.40202C27.2133 6.88606 29.4391 12.7863 29.4391 16.656C29.4391 19.8976 27.7705 22.688 24.3508 22.688H4.16232Z" fill="#64CDFF"/>
<path id="Fill 17" fill-rule="evenodd" clip-rule="evenodd" d="M13.2445 12.5254C10.6812 7.35775 9.52067 3.56622 7.2535 3.56622C5.84463 3.56622 4.25801 5.04353 2.82182 7.46444C1.2832 10.0334 0.0725098 13.6583 0.0725098 17.5589C0.0725098 20.639 1.57999 22.688 4.16225 22.688C7.89295 22.688 10.7152 17.8296 13.2445 12.5254Z" fill="#2855AF"/>
</g>
</svg>
