<svg width="30" height="30" viewBox="0 0 30 30" fill="none" xmlns="http://www.w3.org/2000/svg">
<path id="icon/facebook" fill-rule="evenodd" clip-rule="evenodd" d="M19.7327 9.31862L18.0168 9.31945C16.6716 9.31945 16.4112 9.95882 16.4112 10.8969V12.9654H19.6197L19.2019 16.2057H16.4112V24.5196H13.0652V16.2057H10.2673V12.9654H13.0652V10.5761C13.0652 7.80296 14.7587 6.29297 17.2325 6.29297C18.4175 6.29297 19.436 6.38128 19.7327 6.42053V9.31862ZM0 14.9999V15.0072C0 23.2873 6.71255 30 14.9927 30H15.0073C23.2876 30 30 23.2873 30 15.0072V14.9999C30 6.71551 23.2844 0 15 0C6.71574 0 0 6.71551 0 14.9999Z" fill="#2855AF"/>
</svg>
