<svg width="78" height="78" viewBox="0 0 78 78" fill="none" xmlns="http://www.w3.org/2000/svg">
<g id="icon_1">
<circle id="Oval" cx="39" cy="39" r="39" fill="#E0F5FF"/>
<circle id="Oval_2" cx="48" cy="25" r="16" fill="#FFBABD"/>
<circle id="Oval_3" cx="38" cy="39" r="25" fill="white"/>
<circle id="Oval_4" cx="21.5" cy="58.5" r="5.5" fill="#FFBABD"/>
<path id="&#226;&#130;&#189;" fill-rule="evenodd" clip-rule="evenodd" d="M40.9886 25H32.4141V37.1683L28.9975 37.1685V43.2511L32.4141 43.2508V45.4739L28.9975 45.4744V51.4044L32.4141 51.4028V55H38.7658L38.7644 51.4028L44.9073 51.4044V45.4744L38.7644 45.4739V43.2508L40.9123 43.2511L41.5072 43.2404C42.6864 43.1979 43.8022 43.0277 44.8523 42.7277C46.1294 42.3628 47.2583 41.7983 48.2262 41.0334C49.218 40.2496 50.0028 39.2645 50.5717 38.0952C51.1488 36.909 51.4302 35.5487 51.4302 34.0302C51.4302 32.5196 51.1652 31.1792 50.6184 30.0211C50.0738 28.868 49.3094 27.9002 48.3348 27.1368C47.387 26.3943 46.2665 25.8497 44.9868 25.4992C43.9669 25.22 42.8687 25.059 41.6936 25.0135L40.9886 25ZM38.7644 31.0825L40.9886 31.0825L41.4024 31.0907C42.6091 31.1398 43.5048 31.4079 44.1178 31.8579C44.646 32.2458 44.9281 32.9098 44.9281 34.0302C44.9281 35.1693 44.6315 35.8864 44.0637 36.3392C43.3902 36.8762 42.3834 37.1685 40.9886 37.1685L38.7644 37.1683V31.0825Z" fill="#2855AF"/>
</g>
</svg>
