<svg width="30" height="30" viewBox="0 0 30 30" fill="none" xmlns="http://www.w3.org/2000/svg">
<path id="icon/instagram" fill-rule="evenodd" clip-rule="evenodd" d="M20.4209 9.57894C20.6901 9.84815 20.8569 10.1045 20.9963 10.4634C21.1016 10.7345 21.2269 11.1417 21.2611 11.8917C21.2981 12.7027 21.3059 12.946 21.3059 14.9999C21.3059 17.0537 21.2981 17.297 21.2611 18.108C21.2269 18.8581 21.1016 19.2654 20.9963 19.5363C20.8569 19.8954 20.6901 20.1516 20.4209 20.4208C20.1518 20.69 19.8956 20.8567 19.5365 20.9963C19.2654 21.1015 18.8582 21.2269 18.1082 21.2612C17.2972 21.298 17.054 21.306 15.0001 21.306C12.946 21.306 12.7028 21.298 11.8918 21.2612C11.1419 21.2269 10.7346 21.1015 10.4635 20.9963C10.1044 20.8567 9.84823 20.69 9.57914 20.4208C9.30994 20.1516 9.14312 19.8954 9.00374 19.5363C8.8984 19.2654 8.77308 18.8581 8.73891 18.108C8.70179 17.297 8.6941 17.0537 8.6941 14.9999C8.6941 12.946 8.70179 12.7027 8.73891 11.8917C8.77308 11.1417 8.8984 10.7345 9.00374 10.4634C9.14312 10.1045 9.30994 9.84815 9.57914 9.57894C9.84823 9.30986 10.1044 9.14316 10.4635 9.00365C10.7346 8.89831 11.1419 8.77299 11.8918 8.73871C12.7029 8.7017 12.9461 8.6939 15.0001 8.6939C17.0539 8.6939 17.2971 8.7017 18.1082 8.73871C18.8582 8.77299 19.2654 8.89831 19.5365 9.00365C19.8956 9.14316 20.1518 9.30986 20.4209 9.57894ZM18.1828 10.8939C18.1828 11.4038 18.5962 11.817 19.106 11.817C19.6158 11.817 20.0291 11.4038 20.0291 10.8939C20.0291 10.3842 19.6158 9.97098 19.106 9.97098C18.5962 9.97098 18.1828 10.3842 18.1828 10.8939ZM11.05 14.9999C11.05 17.1814 12.8184 18.9498 15.0001 18.9498C17.1815 18.9498 18.95 17.1814 18.95 14.9999C18.95 12.8185 17.1815 11.05 15.0001 11.05C12.8184 11.05 11.05 12.8185 11.05 14.9999ZM12.4486 14.9999C12.4486 13.5908 13.5908 12.4485 15 12.4485C16.4092 12.4485 17.5514 13.5908 17.5514 14.9999C17.5514 16.409 16.4092 17.5513 15 17.5513C13.5908 17.5513 12.4486 16.409 12.4486 14.9999ZM22.6457 18.1713C22.6084 18.99 22.4783 19.5491 22.2882 20.0385C22.0916 20.5441 21.8285 20.9732 21.4009 21.4008C20.9733 21.8285 20.5444 22.0915 20.0385 22.288C19.5492 22.4782 18.9901 22.6081 18.1713 22.6456C17.3509 22.683 17.0891 22.6918 15 22.6918C12.9109 22.6918 12.6491 22.683 11.8287 22.6456C11.0099 22.6081 10.4508 22.4782 9.96154 22.288C9.45576 22.0915 9.02672 21.8285 8.59909 21.4008C8.17147 20.9732 7.90853 20.5441 7.71192 20.0385C7.52169 19.5491 7.39176 18.99 7.35429 18.1713C7.31693 17.3509 7.30818 17.0889 7.30818 14.9999C7.30818 12.9109 7.31693 12.6489 7.35429 11.8286C7.39176 11.0099 7.52169 10.4506 7.71192 9.96142C7.90853 9.45553 8.17147 9.02648 8.59909 8.59898C9.02672 8.17135 9.45576 7.9083 9.96154 7.71168C10.4508 7.52169 11.0099 7.39165 11.8287 7.35429C12.6491 7.31681 12.9109 7.30794 15 7.30794C17.0891 7.30794 17.3509 7.31681 18.1713 7.35429C18.9901 7.39165 19.5492 7.52169 20.0385 7.71168C20.5444 7.9083 20.9733 8.17135 21.4009 8.59898C21.8285 9.02648 22.0916 9.45553 22.2882 9.96142C22.4783 10.4506 22.6084 11.0099 22.6457 11.8286C22.6831 12.6489 22.6919 12.9109 22.6919 14.9999C22.6919 17.0889 22.6831 17.3509 22.6457 18.1713ZM15 0C6.71574 0 0 6.71563 0 14.9999V15.0072C0 23.2873 6.71243 30 14.9928 30H15.0073C23.2876 30 30 23.2873 30 15.0072V14.9999C30 6.71563 23.2843 0 15 0Z" fill="#2855AF"/>
</svg>
