<svg width="30" height="30" viewBox="0 0 30 30" fill="none" xmlns="http://www.w3.org/2000/svg">
<path id="icon/twitter" fill-rule="evenodd" clip-rule="evenodd" d="M22.086 12.2362C22.086 16.7083 18.682 21.8652 12.4573 21.8652C10.5462 21.8652 8.76721 21.305 7.26952 20.3444C7.53435 20.3759 7.80367 20.3921 8.07701 20.3921C9.66242 20.3921 11.1217 19.851 12.2798 18.9431C10.7989 18.916 9.54916 17.9375 9.11846 16.5931C9.32512 16.6326 9.53722 16.6538 9.75523 16.6538C10.0638 16.6538 10.3628 16.6125 10.6468 16.5351C9.0986 16.2241 7.93218 14.8562 7.93218 13.2167C7.93218 13.2025 7.93218 13.1882 7.93241 13.174C8.38877 13.4277 8.9105 13.5796 9.46534 13.5974C8.55724 12.9906 7.95972 11.9545 7.95972 10.7805C7.95972 10.1603 8.12666 9.57896 8.41797 9.07921C10.0871 11.1267 12.5807 12.4741 15.3933 12.6149C15.3356 12.3674 15.3057 12.1092 15.3057 11.8439C15.3057 9.97501 16.8209 8.45982 18.69 8.45982C19.6632 8.45982 20.5429 8.87054 21.1602 9.52835C21.931 9.37667 22.6553 9.09517 23.3092 8.70715C23.0566 9.49762 22.5198 10.1606 21.8212 10.5795C22.5059 10.4977 23.1581 10.3156 23.765 10.0465C23.3112 10.7253 22.7375 11.3213 22.0762 11.7985C22.0828 11.9438 22.086 12.0896 22.086 12.2362ZM0 14.9999V15.0073C0 23.2874 6.71243 30 14.9927 30H15.0072C23.2876 30 30 23.2874 30 15.0073V14.9999C30 6.71563 23.2843 0 15 0C6.71574 0 0 6.71563 0 14.9999Z" fill="#2855AF"/>
</svg>
