<svg width="30" height="30" viewBox="0 0 30 30" fill="none" xmlns="http://www.w3.org/2000/svg">
<path id="icon/vk" fill-rule="evenodd" clip-rule="evenodd" d="M0 15.0072V14.9999C0 6.71563 6.71574 0 15 0C23.2843 0 30 6.71563 30 14.9999V15.0072C30 23.2874 23.2876 30 15.0073 30H14.9928C6.71243 30 0 23.2874 0 15.0072ZM24.4235 21.131C24.4452 21.1669 24.4685 21.2116 24.4936 21.2656C24.5186 21.3194 24.5438 21.4147 24.5693 21.5509C24.5942 21.6874 24.5927 21.8096 24.5638 21.9172C24.535 22.0248 24.4454 22.1236 24.2946 22.2134C24.1441 22.303 23.9319 22.3481 23.6592 22.3481L20.9023 22.3911C20.7298 22.427 20.5288 22.409 20.2994 22.3373C20.0696 22.2655 19.8829 22.1865 19.7391 22.1003L19.5238 21.9711C19.3085 21.8201 19.0573 21.5905 18.77 21.2818C18.4829 20.9731 18.237 20.695 18.0324 20.4472C17.8276 20.1996 17.6087 19.9913 17.3754 19.8226C17.1418 19.6537 16.939 19.5981 16.7667 19.6555C16.7452 19.6629 16.7166 19.6751 16.6808 19.6932C16.6449 19.7111 16.5835 19.7633 16.4974 19.8494C16.4116 19.9354 16.3344 20.0414 16.266 20.167C16.1976 20.2927 16.1364 20.4794 16.0827 20.727C16.029 20.9746 16.0055 21.2528 16.0129 21.5615C16.0129 21.669 16.0003 21.7679 15.9751 21.8576C15.9502 21.9472 15.9233 22.0138 15.8944 22.0566L15.8516 22.1106C15.7223 22.2469 15.532 22.3259 15.2808 22.3476H14.0423C13.5325 22.3761 13.0084 22.317 12.4699 22.1697C11.9314 22.0226 11.4594 21.8323 11.0537 21.5992C10.648 21.3656 10.2783 21.1288 9.94439 20.8881C9.61053 20.6477 9.3575 20.4413 9.18519 20.2689L8.9159 20.0105C8.84412 19.9387 8.74537 19.8312 8.61965 19.6874C8.49408 19.5439 8.23743 19.2172 7.8497 18.7074C7.46197 18.1978 7.08145 17.6556 6.70813 17.0812C6.33488 16.5072 5.89506 15.7496 5.38893 14.809C4.8828 13.8685 4.41435 12.8921 3.98358 11.8797C3.94047 11.7649 3.91893 11.668 3.91893 11.589C3.91893 11.51 3.92979 11.4526 3.95133 11.4166L3.99444 11.3521C4.10217 11.2156 4.30677 11.1473 4.60831 11.1473L7.55914 11.1259C7.64537 11.1402 7.72782 11.1634 7.80685 11.1958C7.88576 11.2283 7.94328 11.2587 7.97912 11.2874L8.03302 11.3198C8.14788 11.3988 8.23407 11.5136 8.29144 11.6643C8.43497 12.0233 8.60007 12.3949 8.78686 12.7791C8.97354 13.1631 9.12065 13.4558 9.22834 13.6568L9.40061 13.9692C9.60883 14.3999 9.80988 14.7732 10.0036 15.0891C10.1976 15.405 10.3717 15.6509 10.5261 15.8269C10.6805 16.0028 10.8294 16.1409 10.9729 16.2415C11.1165 16.342 11.2385 16.3924 11.3391 16.3924C11.4396 16.3924 11.5366 16.3741 11.6299 16.3384C11.6442 16.3313 11.6621 16.3132 11.6837 16.2845C11.7053 16.2559 11.7483 16.1769 11.813 16.0477C11.8776 15.9185 11.926 15.7498 11.9584 15.5415C11.9908 15.3333 12.0247 15.0426 12.0607 14.6692C12.0965 14.2959 12.0965 13.8472 12.0607 13.323C12.0464 13.0359 12.014 12.7739 11.9638 12.537C11.9135 12.3001 11.8633 12.1349 11.813 12.0416L11.7483 11.9122C11.5688 11.6681 11.2638 11.5137 10.8329 11.4492C10.7396 11.435 10.7576 11.3488 10.8869 11.1908C11.0089 11.0545 11.1453 10.9467 11.2961 10.8678C11.6766 10.6811 12.5347 10.5949 13.87 10.6092C14.4588 10.6165 14.9434 10.6631 15.324 10.7492C15.4674 10.7852 15.5879 10.8336 15.6848 10.8946C15.7815 10.9557 15.8552 11.0418 15.9055 11.1531C15.9556 11.2645 15.9936 11.3794 16.0183 11.4978C16.0434 11.6163 16.056 11.7796 16.056 11.9878C16.056 12.196 16.0526 12.3935 16.0453 12.5802C16.038 12.7667 16.0292 13.0198 16.0183 13.3393C16.0076 13.6588 16.0023 13.9549 16.0023 14.2278C16.0023 14.3068 15.999 14.4574 15.9915 14.6801C15.9842 14.9027 15.9827 15.0752 15.986 15.1971C15.9897 15.3192 16.0023 15.4644 16.0238 15.6333C16.0453 15.802 16.0865 15.942 16.1477 16.0533C16.2086 16.1646 16.2894 16.2525 16.3898 16.3172C16.4475 16.3315 16.5084 16.3458 16.5731 16.3603C16.6377 16.3747 16.7309 16.3352 16.853 16.2418C16.9753 16.1483 17.1114 16.0247 17.2623 15.8703C17.413 15.716 17.5996 15.4754 17.8221 15.1488C18.045 14.8221 18.2889 14.4363 18.5546 13.9911C18.9855 13.2444 19.3694 12.4367 19.7071 11.568C19.7357 11.4962 19.7716 11.4332 19.8145 11.3795C19.8576 11.3257 19.8971 11.288 19.933 11.2666L19.9759 11.2342L20.0299 11.2072L20.1699 11.1748C20.2634 11.1532 20.3351 11.1516 20.3854 11.1694L23.4869 11.1479C23.767 11.1121 23.9966 11.121 24.1763 11.1748C24.3556 11.2287 24.4669 11.2879 24.51 11.3525L24.5742 11.4599C24.7394 11.9195 24.2009 12.9747 22.9587 14.6261C22.7865 14.8559 22.5532 15.1609 22.2588 15.5415C21.6989 16.2596 21.3756 16.7296 21.2895 16.9521C21.1676 17.2467 21.2176 17.5374 21.4405 17.8246C21.5624 17.9754 21.8533 18.2699 22.3127 18.7078H22.3236L22.3344 18.7186L22.3451 18.7292L22.3665 18.7507C23.3788 19.6913 24.0646 20.4846 24.4235 21.131Z" fill="#2855AF"/>
</svg>
